<mxfile host="app.diagrams.net" modified="2022-12-03T00:00:39.974Z" agent="5.0 (Windows NT 10.0; Win64; x64) AppleWebKit/537.36 (KHTML, like Gecko) Chrome/107.0.0.0 Safari/537.36" etag="msLCKb96d6GlMfYbLkwY" version="20.6.0" type="github">
  <diagram id="C5RBs43oDa-KdzZeNtuy" name="Page-1">
    <mxGraphModel dx="559" dy="875" grid="0" gridSize="10" guides="1" tooltips="1" connect="1" arrows="1" fold="1" page="1" pageScale="1" pageWidth="827" pageHeight="1169" math="0" shadow="0">
      <root>
        <mxCell id="WIyWlLk6GJQsqaUBKTNV-0" />
        <mxCell id="WIyWlLk6GJQsqaUBKTNV-1" parent="WIyWlLk6GJQsqaUBKTNV-0" />
        <mxCell id="8dt7e1dIpxcetfPC-Uj9-0" value="User" style="rounded=0;whiteSpace=wrap;html=1;" vertex="1" parent="WIyWlLk6GJQsqaUBKTNV-1">
          <mxGeometry x="300" y="210" width="120" height="30" as="geometry" />
        </mxCell>
        <mxCell id="8dt7e1dIpxcetfPC-Uj9-9" style="edgeStyle=orthogonalEdgeStyle;rounded=0;orthogonalLoop=1;jettySize=auto;html=1;exitX=0.5;exitY=0;exitDx=0;exitDy=0;entryX=0.5;entryY=1;entryDx=0;entryDy=0;endArrow=none;endFill=0;startArrow=diamondThin;startFill=1;startSize=11;" edge="1" parent="WIyWlLk6GJQsqaUBKTNV-1" source="8dt7e1dIpxcetfPC-Uj9-1" target="8dt7e1dIpxcetfPC-Uj9-0">
          <mxGeometry relative="1" as="geometry" />
        </mxCell>
        <mxCell id="8dt7e1dIpxcetfPC-Uj9-39" style="edgeStyle=orthogonalEdgeStyle;rounded=0;jumpSize=6;orthogonalLoop=1;jettySize=auto;html=1;exitX=1;exitY=0.5;exitDx=0;exitDy=0;entryX=0.5;entryY=1;entryDx=0;entryDy=0;strokeWidth=1;fontSize=12;startArrow=none;startFill=0;endArrow=none;endFill=0;startSize=6;endSize=11;" edge="1" parent="WIyWlLk6GJQsqaUBKTNV-1" source="8dt7e1dIpxcetfPC-Uj9-1" target="8dt7e1dIpxcetfPC-Uj9-4">
          <mxGeometry relative="1" as="geometry" />
        </mxCell>
        <mxCell id="8dt7e1dIpxcetfPC-Uj9-1" value="Tracker" style="rounded=0;whiteSpace=wrap;html=1;" vertex="1" parent="WIyWlLk6GJQsqaUBKTNV-1">
          <mxGeometry x="300" y="300" width="120" height="30" as="geometry" />
        </mxCell>
        <mxCell id="8dt7e1dIpxcetfPC-Uj9-7" style="edgeStyle=orthogonalEdgeStyle;rounded=0;orthogonalLoop=1;jettySize=auto;html=1;entryX=0.5;entryY=1;entryDx=0;entryDy=0;endArrow=diamondThin;endFill=1;endSize=11;" edge="1" parent="WIyWlLk6GJQsqaUBKTNV-1" source="8dt7e1dIpxcetfPC-Uj9-2" target="8dt7e1dIpxcetfPC-Uj9-1">
          <mxGeometry relative="1" as="geometry">
            <Array as="points">
              <mxPoint x="280" y="425" />
              <mxPoint x="360" y="425" />
            </Array>
          </mxGeometry>
        </mxCell>
        <mxCell id="8dt7e1dIpxcetfPC-Uj9-2" value="Exercise" style="rounded=0;whiteSpace=wrap;html=1;" vertex="1" parent="WIyWlLk6GJQsqaUBKTNV-1">
          <mxGeometry x="220" y="460" width="120" height="30" as="geometry" />
        </mxCell>
        <mxCell id="8dt7e1dIpxcetfPC-Uj9-8" style="edgeStyle=orthogonalEdgeStyle;rounded=0;orthogonalLoop=1;jettySize=auto;html=1;entryX=0.5;entryY=1;entryDx=0;entryDy=0;endArrow=diamondThin;endFill=1;startSize=6;endSize=11;" edge="1" parent="WIyWlLk6GJQsqaUBKTNV-1" source="8dt7e1dIpxcetfPC-Uj9-3" target="8dt7e1dIpxcetfPC-Uj9-1">
          <mxGeometry relative="1" as="geometry">
            <Array as="points">
              <mxPoint x="440" y="425" />
              <mxPoint x="360" y="425" />
            </Array>
          </mxGeometry>
        </mxCell>
        <mxCell id="8dt7e1dIpxcetfPC-Uj9-3" value="Food" style="rounded=0;whiteSpace=wrap;html=1;" vertex="1" parent="WIyWlLk6GJQsqaUBKTNV-1">
          <mxGeometry x="380" y="460" width="120" height="30" as="geometry" />
        </mxCell>
        <mxCell id="8dt7e1dIpxcetfPC-Uj9-10" style="edgeStyle=orthogonalEdgeStyle;rounded=0;orthogonalLoop=1;jettySize=auto;html=1;entryX=1;entryY=0.5;entryDx=0;entryDy=0;endArrow=none;endFill=0;startArrow=diamondThin;startFill=1;startSize=11;" edge="1" parent="WIyWlLk6GJQsqaUBKTNV-1" source="8dt7e1dIpxcetfPC-Uj9-4" target="8dt7e1dIpxcetfPC-Uj9-0">
          <mxGeometry relative="1" as="geometry" />
        </mxCell>
        <mxCell id="8dt7e1dIpxcetfPC-Uj9-4" value="Recommendation" style="rounded=0;whiteSpace=wrap;html=1;" vertex="1" parent="WIyWlLk6GJQsqaUBKTNV-1">
          <mxGeometry x="490" y="210" width="120" height="30" as="geometry" />
        </mxCell>
        <mxCell id="8dt7e1dIpxcetfPC-Uj9-11" style="edgeStyle=orthogonalEdgeStyle;rounded=0;orthogonalLoop=1;jettySize=auto;html=1;entryX=0.5;entryY=0;entryDx=0;entryDy=0;endArrow=none;endFill=0;startArrow=diamondThin;startFill=1;endSize=6;jumpSize=6;fontSize=12;strokeWidth=1;startSize=11;" edge="1" parent="WIyWlLk6GJQsqaUBKTNV-1" source="8dt7e1dIpxcetfPC-Uj9-5" target="8dt7e1dIpxcetfPC-Uj9-0">
          <mxGeometry relative="1" as="geometry" />
        </mxCell>
        <mxCell id="8dt7e1dIpxcetfPC-Uj9-38" style="edgeStyle=orthogonalEdgeStyle;rounded=0;jumpSize=6;orthogonalLoop=1;jettySize=auto;html=1;exitX=1;exitY=0.5;exitDx=0;exitDy=0;entryX=0.5;entryY=0;entryDx=0;entryDy=0;strokeWidth=1;fontSize=12;startArrow=none;startFill=0;endArrow=none;endFill=0;startSize=6;endSize=11;" edge="1" parent="WIyWlLk6GJQsqaUBKTNV-1" source="8dt7e1dIpxcetfPC-Uj9-5" target="8dt7e1dIpxcetfPC-Uj9-4">
          <mxGeometry relative="1" as="geometry" />
        </mxCell>
        <mxCell id="8dt7e1dIpxcetfPC-Uj9-5" value="Goals" style="rounded=0;whiteSpace=wrap;html=1;" vertex="1" parent="WIyWlLk6GJQsqaUBKTNV-1">
          <mxGeometry x="300" y="120" width="120" height="30" as="geometry" />
        </mxCell>
        <mxCell id="8dt7e1dIpxcetfPC-Uj9-12" style="edgeStyle=orthogonalEdgeStyle;rounded=0;orthogonalLoop=1;jettySize=auto;html=1;entryX=0;entryY=0.5;entryDx=0;entryDy=0;endArrow=none;endFill=0;startArrow=diamondThin;startFill=1;startSize=11;" edge="1" parent="WIyWlLk6GJQsqaUBKTNV-1" source="8dt7e1dIpxcetfPC-Uj9-6" target="8dt7e1dIpxcetfPC-Uj9-0">
          <mxGeometry relative="1" as="geometry" />
        </mxCell>
        <mxCell id="8dt7e1dIpxcetfPC-Uj9-6" value="Quizzes" style="rounded=0;whiteSpace=wrap;html=1;" vertex="1" parent="WIyWlLk6GJQsqaUBKTNV-1">
          <mxGeometry x="110" y="210" width="120" height="30" as="geometry" />
        </mxCell>
        <mxCell id="8dt7e1dIpxcetfPC-Uj9-13" value="0..1" style="text;html=1;align=center;verticalAlign=middle;resizable=0;points=[];autosize=1;strokeColor=none;fillColor=none;" vertex="1" parent="WIyWlLk6GJQsqaUBKTNV-1">
          <mxGeometry x="355" y="235" width="40" height="30" as="geometry" />
        </mxCell>
        <mxCell id="8dt7e1dIpxcetfPC-Uj9-15" value="0..1" style="text;html=1;align=center;verticalAlign=middle;resizable=0;points=[];autosize=1;strokeColor=none;fillColor=none;" vertex="1" parent="WIyWlLk6GJQsqaUBKTNV-1">
          <mxGeometry x="415" y="201" width="40" height="30" as="geometry" />
        </mxCell>
        <mxCell id="8dt7e1dIpxcetfPC-Uj9-17" value="0..1" style="text;html=1;align=center;verticalAlign=middle;resizable=0;points=[];autosize=1;strokeColor=none;fillColor=none;" vertex="1" parent="WIyWlLk6GJQsqaUBKTNV-1">
          <mxGeometry x="354" y="186" width="40" height="30" as="geometry" />
        </mxCell>
        <mxCell id="8dt7e1dIpxcetfPC-Uj9-18" value="0..1" style="text;html=1;align=center;verticalAlign=middle;resizable=0;points=[];autosize=1;strokeColor=none;fillColor=none;" vertex="1" parent="WIyWlLk6GJQsqaUBKTNV-1">
          <mxGeometry x="265" y="202" width="40" height="30" as="geometry" />
        </mxCell>
        <mxCell id="8dt7e1dIpxcetfPC-Uj9-26" value="0..*" style="text;html=1;align=center;verticalAlign=middle;resizable=0;points=[];autosize=1;strokeColor=none;fillColor=none;" vertex="1" parent="WIyWlLk6GJQsqaUBKTNV-1">
          <mxGeometry x="245" y="435" width="40" height="30" as="geometry" />
        </mxCell>
        <mxCell id="8dt7e1dIpxcetfPC-Uj9-27" value="0..*" style="text;html=1;align=center;verticalAlign=middle;resizable=0;points=[];autosize=1;strokeColor=none;fillColor=none;" vertex="1" parent="WIyWlLk6GJQsqaUBKTNV-1">
          <mxGeometry x="436" y="435" width="40" height="30" as="geometry" />
        </mxCell>
        <mxCell id="8dt7e1dIpxcetfPC-Uj9-34" value="" style="triangle;whiteSpace=wrap;html=1;fontSize=12;fillColor=#000000;rotation=-90;" vertex="1" parent="WIyWlLk6GJQsqaUBKTNV-1">
          <mxGeometry x="335" y="365" width="10" height="20" as="geometry" />
        </mxCell>
        <mxCell id="8dt7e1dIpxcetfPC-Uj9-35" value="" style="triangle;whiteSpace=wrap;html=1;fontSize=12;fillColor=#000000;rotation=90;" vertex="1" parent="WIyWlLk6GJQsqaUBKTNV-1">
          <mxGeometry x="375" y="365" width="10" height="20" as="geometry" />
        </mxCell>
        <mxCell id="8dt7e1dIpxcetfPC-Uj9-36" value="Add item" style="text;html=1;strokeColor=none;fillColor=none;align=center;verticalAlign=middle;whiteSpace=wrap;rounded=0;fontSize=12;rotation=-90;" vertex="1" parent="WIyWlLk6GJQsqaUBKTNV-1">
          <mxGeometry x="280" y="365" width="60" height="30" as="geometry" />
        </mxCell>
        <mxCell id="8dt7e1dIpxcetfPC-Uj9-37" value="Update or delete&amp;nbsp; item" style="text;html=1;strokeColor=none;fillColor=none;align=center;verticalAlign=middle;whiteSpace=wrap;rounded=0;fontSize=12;rotation=90;" vertex="1" parent="WIyWlLk6GJQsqaUBKTNV-1">
          <mxGeometry x="381" y="360" width="65" height="30" as="geometry" />
        </mxCell>
        <mxCell id="8dt7e1dIpxcetfPC-Uj9-40" value="" style="triangle;whiteSpace=wrap;html=1;fontSize=12;fillColor=#000000;" vertex="1" parent="WIyWlLk6GJQsqaUBKTNV-1">
          <mxGeometry x="480" y="290" width="10" height="20" as="geometry" />
        </mxCell>
        <mxCell id="8dt7e1dIpxcetfPC-Uj9-44" value="" style="triangle;whiteSpace=wrap;html=1;fontSize=12;fillColor=#000000;" vertex="1" parent="WIyWlLk6GJQsqaUBKTNV-1">
          <mxGeometry x="476" y="110" width="10" height="20" as="geometry" />
        </mxCell>
        <mxCell id="8dt7e1dIpxcetfPC-Uj9-46" value="Shares details" style="text;html=1;strokeColor=none;fillColor=none;align=center;verticalAlign=middle;whiteSpace=wrap;rounded=0;fontSize=12;" vertex="1" parent="WIyWlLk6GJQsqaUBKTNV-1">
          <mxGeometry x="441.5" y="80" width="79" height="30" as="geometry" />
        </mxCell>
        <mxCell id="8dt7e1dIpxcetfPC-Uj9-47" value="Shares details" style="text;html=1;strokeColor=none;fillColor=none;align=center;verticalAlign=middle;whiteSpace=wrap;rounded=0;fontSize=12;" vertex="1" parent="WIyWlLk6GJQsqaUBKTNV-1">
          <mxGeometry x="445" y="260" width="79" height="30" as="geometry" />
        </mxCell>
        <mxCell id="8dt7e1dIpxcetfPC-Uj9-49" style="edgeStyle=orthogonalEdgeStyle;rounded=0;jumpSize=6;orthogonalLoop=1;jettySize=auto;html=1;exitX=0.5;exitY=1;exitDx=0;exitDy=0;entryX=0.5;entryY=0;entryDx=0;entryDy=0;strokeWidth=1;fontSize=12;startArrow=none;startFill=0;endArrow=diamondThin;endFill=1;startSize=6;endSize=11;" edge="1" parent="WIyWlLk6GJQsqaUBKTNV-1" source="8dt7e1dIpxcetfPC-Uj9-48" target="8dt7e1dIpxcetfPC-Uj9-5">
          <mxGeometry relative="1" as="geometry" />
        </mxCell>
        <mxCell id="8dt7e1dIpxcetfPC-Uj9-48" value="Goal" style="rounded=0;whiteSpace=wrap;html=1;" vertex="1" parent="WIyWlLk6GJQsqaUBKTNV-1">
          <mxGeometry x="300" y="34" width="120" height="30" as="geometry" />
        </mxCell>
        <mxCell id="8dt7e1dIpxcetfPC-Uj9-50" value="0..*" style="text;html=1;align=center;verticalAlign=middle;resizable=0;points=[];autosize=1;strokeColor=none;fillColor=none;" vertex="1" parent="WIyWlLk6GJQsqaUBKTNV-1">
          <mxGeometry x="355" y="58" width="40" height="30" as="geometry" />
        </mxCell>
      </root>
    </mxGraphModel>
  </diagram>
</mxfile>
